<svg id="Layer_1" data-name="Layer 1" xmlns="http://www.w3.org/2000/svg" viewBox="0 0 170 185"><defs><style>.cls-1{fill:#323333;}</style></defs><title>lukko</title><path class="cls-1" d="M154.55,61.23H139.09V30.94A30.93,30.93,0,0,0,108.18,0H61.82A30.93,30.93,0,0,0,30.91,30.94V61.23H15.45A15.46,15.46,0,0,0,0,76.7v92.83A15.46,15.46,0,0,0,15.45,185H154.55A15.46,15.46,0,0,0,170,169.53V76.7A15.46,15.46,0,0,0,154.55,61.23ZM104,109.69a19.36,19.36,0,0,1-8.76,13.06,5.26,5.26,0,0,0-2.36,5.56l5.74,27.46a2.83,2.83,0,0,1-2.59,3.41H73.94a2.81,2.81,0,0,1-2.59-3.41l5.74-27.36a5.41,5.41,0,0,0-2.36-5.64A19.35,19.35,0,0,1,66,109.69a19.94,19.94,0,0,1-.29-3.8A19.4,19.4,0,0,1,84.53,87.05H85A19.31,19.31,0,0,1,104,109.69Zm4.22-48.47H61.75V37.9a7.73,7.73,0,0,1,7.73-7.74h31a7.73,7.73,0,0,1,7.73,7.74V61.23Z"/></svg>