<svg id="Layer_1" data-name="Layer 1" xmlns="http://www.w3.org/2000/svg" viewBox="0 0 200 165"><defs><style>.cls-1{fill:#fff;}.cls-2{fill:#231f20;}</style></defs><title>palautesysteemi</title><path class="cls-1" d="M85,161.5a1.48,1.48,0,0,1-1.05-.44l-13.88-14H10a6.53,6.53,0,0,1-6.5-6.55V40.05A6.53,6.53,0,0,1,10,33.5H160a6.53,6.53,0,0,1,6.5,6.55V140.56a6.53,6.53,0,0,1-6.5,6.55H99.94l-13.88,14A1.48,1.48,0,0,1,85,161.5Z"/><path class="cls-2" d="M160,37a3,3,0,0,1,3,3.05V140.56a3,3,0,0,1-3,3.05H98.48l-2.05,2.06L85,157.16,73.57,145.67l-2.05-2.06H10a3,3,0,0,1-3-3.05V40.05A3,3,0,0,1,10,37H160m0-7H10A10,10,0,0,0,0,40.05V140.56a10,10,0,0,0,10,10.05H68.61l12.86,12.92a5,5,0,0,0,7.07,0l12.86-12.92H160a10,10,0,0,0,10-10.05V40.05A10,10,0,0,0,160,30h0Z"/><path class="cls-2" d="M137.5,78.89H32.5a3.5,3.5,0,1,1,0-7h105A3.5,3.5,0,0,1,137.5,78.89Z"/><path class="cls-2" d="M92.5,107.69h-60a3.5,3.5,0,1,1,0-7h60A3.5,3.5,0,0,1,92.5,107.69Z"/><path class="cls-1" d="M168.67,59.16A27.83,27.83,0,1,1,196.5,31.33,27.86,27.86,0,0,1,168.67,59.16Z"/><path class="cls-2" d="M168.67,7a24.33,24.33,0,1,1-24.33,24.33A24.36,24.36,0,0,1,168.67,7m0-7A31.33,31.33,0,1,0,200,31.33,31.33,31.33,0,0,0,168.67,0h0Z"/></svg>