<svg id="Layer_1" data-name="Layer 1" xmlns="http://www.w3.org/2000/svg" viewBox="0 0 105 150"><defs><style>.cls-1{fill:#fff;}.cls-2{fill:#231f20;}</style></defs><title>palautesysteemi</title><rect class="cls-1" x="13.25" y="3.5" width="78" height="143"/><path class="cls-2" d="M87.75,7V143h-71V7h71m7-7h-85V150h85V0h0Z"/><path class="cls-2" d="M101.5,7.09H3.5a3.5,3.5,0,1,1,0-7h98A3.5,3.5,0,1,1,101.5,7.09Z"/><path class="cls-2" d="M34.5,28.65h-8a3.5,3.5,0,0,1,0-7h8A3.5,3.5,0,0,1,34.5,28.65Z"/><path class="cls-2" d="M56.5,28.65h-8a3.5,3.5,0,0,1,0-7h8A3.5,3.5,0,0,1,56.5,28.65Z"/><path class="cls-2" d="M78.5,28.65h-8a3.5,3.5,0,0,1,0-7h8A3.5,3.5,0,0,1,78.5,28.65Z"/><path class="cls-2" d="M34.5,49.79h-8a3.5,3.5,0,0,1,0-7h8A3.5,3.5,0,0,1,34.5,49.79Z"/><path class="cls-2" d="M56.5,49.79h-8a3.5,3.5,0,0,1,0-7h8A3.5,3.5,0,0,1,56.5,49.79Z"/><path class="cls-2" d="M78.5,49.79h-8a3.5,3.5,0,0,1,0-7h8A3.5,3.5,0,0,1,78.5,49.79Z"/><path class="cls-2" d="M34.5,70.94h-8a3.5,3.5,0,0,1,0-7h8A3.5,3.5,0,1,1,34.5,70.94Z"/><path class="cls-2" d="M56.5,70.94h-8a3.5,3.5,0,1,1,0-7h8A3.5,3.5,0,1,1,56.5,70.94Z"/><path class="cls-2" d="M78.5,70.94h-8a3.5,3.5,0,0,1,0-7h8A3.5,3.5,0,1,1,78.5,70.94Z"/><path class="cls-2" d="M34.5,92.08h-8a3.5,3.5,0,0,1,0-7h8A3.5,3.5,0,0,1,34.5,92.08Z"/><path class="cls-2" d="M56.5,92.08h-8a3.5,3.5,0,1,1,0-7h8A3.5,3.5,0,0,1,56.5,92.08Z"/><path class="cls-2" d="M78.5,92.08h-8a3.5,3.5,0,0,1,0-7h8A3.5,3.5,0,0,1,78.5,92.08Z"/><path class="cls-2" d="M59,120v23H46V120H59m2-7H44a5,5,0,0,0-5,5v32H66V118a5,5,0,0,0-5-5h0Z"/></svg>